<svg id="Filled" height="512" viewBox="0 0 512 512" width="512" xmlns="http://www.w3.org/2000/svg"><path d="m80 168h240v32h-240z" fill="#3397e8"/><path d="m24 296v-48a48 48 0 0 1 48-48h245.194c20.969 0 39.773 11.921 47.3 29.987l27.506 66.013z" fill="#266fab"/><path d="m473.071 346.628c-10.156-32.5-40.254-50.628-74.3-50.628h-150.771v-96a8 8 0 0 0 -16 0v96h-96v-96a8 8 0 0 0 -16 0v96h-96v112h464z" fill="#3397e8"/><rect fill="#ad6643" height="160" rx="16" transform="matrix(0 1 -1 0 351.904 -64.096)" width="111.808" x="152.096" y="63.904"/><rect fill="#ffd33a" height="143.808" rx="13.042" width="64" x="112" y="56"/><path d="m24 384h464v32h-464z" fill="#266fab"/><circle cx="128" cy="400" fill="#7e8589" r="40"/><circle cx="368" cy="400" fill="#7e8589" r="40"/><circle cx="128" cy="400" fill="#b6b9ba" r="16"/><circle cx="368" cy="400" fill="#b6b9ba" r="16"/><path d="m24 352h32v32h-32z" fill="#e9eef2"/><path d="m482.16 384h-42.16v-32h34.38z" fill="#e9eef2"/><path d="m488.455 376.023-7.61-31.286q-.062-.251-.138-.5c-10.677-34.161-42.84-56.237-81.94-56.237h-1.433l-25.455-61.09c-7.5-18.006-24.111-30.6-43.879-33.99v-24.92a8 8 0 0 0 -8-8h-24v-56a24.028 24.028 0 0 0 -24-24h-16v-8a24.027 24.027 0 0 0 -24-24h-16a24.027 24.027 0 0 0 -24 24v8h-8v-10.958a21.065 21.065 0 0 0 -21.042-21.042h-37.916a21.065 21.065 0 0 0 -21.042 21.042v90.958h-24a8 8 0 0 0 -8 8v24a56.063 56.063 0 0 0 -56 56v168a8 8 0 0 0 8 8h62.458a47.953 47.953 0 0 0 83.084 0h156.916a47.953 47.953 0 0 0 83.084 0h78.458a8 8 0 0 0 8-8v-32a7.994 7.994 0 0 0 -7.545-7.977zm-16.472-.023h-23.983v-16h20.091zm-175.983-192.191v-7.809h16v16h-17.441a23.9 23.9 0 0 0 1.441-8.191zm21.194 24.191c17.629 0 33.67 10.072 39.916 25.064l22.89 54.936h-132v-80zm-109.194-136a8.009 8.009 0 0 1 8-8h16a8.009 8.009 0 0 1 8 8v8h-32zm-24 24h88a8.009 8.009 0 0 1 8 8v56h-96zm0 90.767v-10.767h96v7.809a8.009 8.009 0 0 1 -8 8v.191h-88.685a20.969 20.969 0 0 0 .685-5.233zm48 21.233v80h-96v-80zm-80-144h10.958a5.048 5.048 0 0 1 5.042 5.042v90.958h-16zm0 112h16v10.767a5.048 5.048 0 0 1 -5.042 5.042v.191h-10.958zm-32-106.958a5.048 5.048 0 0 1 5.042-5.042h10.958v96h-16zm0 106.958h16v16h-10.958v-.191a5.048 5.048 0 0 1 -5.042-5.042zm-32 0h16v10.767a20.969 20.969 0 0 0 .685 5.233h-16.685zm-56 72a40.045 40.045 0 0 1 40-40h48v80h-88zm0 112h16v16h-16zm48.679 48h-48.679v-16h48.679a47.468 47.468 0 0 0 0 16zm47.321 24a32 32 0 1 1 32-32 32.036 32.036 0 0 1 -32 32zm192.679-24h-145.358a47.468 47.468 0 0 0 0-16h145.358a47.468 47.468 0 0 0 0 16zm47.321 24a32 32 0 1 1 32-32 32.036 32.036 0 0 1 -32 32zm0-80a48.014 48.014 0 0 0 -41.542 24h-156.916a47.953 47.953 0 0 0 -83.084 0h-22.458v-24a8 8 0 0 0 -8-8h-24v-40h366.767c30.444 0 54.808 15.189 64.868 40h-23.635a8 8 0 0 0 -8 8v24h-22.458a48.014 48.014 0 0 0 -41.542-24zm112 56h-64.679a47.468 47.468 0 0 0 0-16h64.679z"/><path d="m24 448a8 8 0 0 0 0 16h464a8 8 0 0 0 0-16z"/><path d="m272 320h-16a8 8 0 0 0 0 16h16a8 8 0 0 0 0-16z"/><path d="m160 320h-16a8 8 0 0 0 0 16h16a8 8 0 0 0 0-16z"/><circle cx="128" cy="400" r="16"/><circle cx="368" cy="400" r="16"/></svg>