<svg height="512pt" viewBox="0 -57 512.00076 512" width="512pt" xmlns="http://www.w3.org/2000/svg"><path d="m316.128906 60.238281h-214.859375c-12.496093 0-22.625 10.128907-22.625 22.625v50.425781h290.558594l-14.453125-44.90625c-5.394531-16.773437-21-28.144531-38.621094-28.144531zm0 0" fill="#fcf2d0"/><path d="m219.953125 60.238281h-118.683594c-12.496093 0-22.625 10.128907-22.625 22.621094v50.429687h160.375c-17.675781-15.570312-25.53125-40.925781-19.066406-73.050781zm0 0" fill="#f6e3a3"/><path d="m141.046875 83.527344h-26.230469c-4.273437 0-7.738281 3.460937-7.738281 7.734375v12.597656c0 4.273437 3.464844 7.738281 7.738281 7.738281h26.230469c4.269531 0 7.734375-3.464844 7.734375-7.738281v-12.597656c0-4.269531-3.464844-7.734375-7.734375-7.734375zm0 0" fill="#6299c9"/><path d="m222.882812 83.527344h-26.226562c-4.273438 0-7.738281 3.460937-7.738281 7.734375v12.597656c0 4.273437 3.464843 7.738281 7.738281 7.738281h26.226562c4.273438 0 7.738282-3.464844 7.738282-7.738281v-12.597656c0-4.269531-3.464844-7.734375-7.738282-7.734375zm0 0" fill="#91d1e0"/><path d="m196.65625 111.59375h26.226562c.183594 0 .359376-.015625.535157-.027344-3.507813-8.238281-5.472657-17.636718-5.683594-28.039062h-21.078125c-4.273438 0-7.738281 3.460937-7.738281 7.734375v12.597656c0 4.273437 3.464843 7.734375 7.738281 7.734375zm0 0" fill="#6299c9"/><path d="m313.566406 81.351562h-27.402344c-4.460937 0-8.078124 3.617188-8.078124 8.082032v13.160156c0 4.460938 3.617187 8.078125 8.078124 8.078125h27.402344c4.460938 0 8.082032-3.617187 8.082032-8.078125v-13.160156c0-4.464844-3.621094-8.082032-8.082032-8.082032zm0 0" fill="#91d1e0"/><path d="m245.5 33.949219h47.542969v26.289062h-47.542969zm0 0" fill="#6299c9"/><path d="m300.167969 33.949219h-61.792969c-4.507812 0-8.164062-3.652344-8.164062-8.160157v-2.832031c0-8.535156 6.921874-15.457031 15.457031-15.457031h47.203125c8.539062 0 15.457031 6.921875 15.457031 15.457031v2.832031c0 4.507813-3.652344 8.160157-8.160156 8.160157zm0 0" fill="#91d1e0"/><path d="m400.667969 389.855469h-325.539063c-24.585937 0-45.644531-17.605469-50-41.804688l-17.1875-95.507812c-3.050781-16.945313 9.976563-32.523438 27.195313-32.523438h447.230469c16.164062 0 26.867187 16.773438 20.054687 31.433594l-48.5625 104.472656c-9.621094 20.695313-30.367187 33.929688-53.191406 33.929688zm0 0" fill="#4c5969"/><path d="m35.136719 220.019531c-17.21875 0-30.246094 15.578125-27.195313 32.523438l17.1875 95.507812c4.355469 24.199219 25.414063 41.804688 50 41.804688h193.484375c-66.171875-47.601563-73.171875-125.757813-66.703125-169.835938zm0 0" fill="#343e4f"/><path d="m377.859375 133.289062h-307.789063c-12.058593 0-21.832031 9.777344-21.832031 21.832032v64.898437h385.835938l-19.242188-59.792969c-5.167969-16.054687-20.105469-26.9375-36.972656-26.9375zm0 0" fill="#fcf2d0"/><path d="m192.390625 133.289062h-122.320313c-12.058593 0-21.832031 9.773438-21.832031 21.832032v64.898437h166.253907c-22.332032-17.019531-30.351563-49.664062-22.101563-86.730469zm0 0" fill="#f6e3a3"/><path d="m117.015625 162.617188h-26.230469c-4.273437 0-7.734375 3.464843-7.734375 7.738281v12.597656c0 4.269531 3.460938 7.734375 7.734375 7.734375h26.230469c4.269531 0 7.734375-3.460938 7.734375-7.734375v-12.597656c0-4.273438-3.464844-7.738281-7.734375-7.738281zm0 0" fill="#6299c9"/><path d="m198.851562 162.617188h-26.226562c-4.273438 0-7.738281 3.464843-7.738281 7.738281v12.597656c0 4.269531 3.464843 7.734375 7.738281 7.734375h26.226562c4.273438 0 7.738282-3.460938 7.738282-7.734375v-12.597656c0-4.273438-3.464844-7.738281-7.738282-7.738281zm0 0" fill="#91d1e0"/><path d="m172.625 190.6875h21.304688c-2.941407-8.480469-4.523438-17.933594-4.6875-28.070312h-16.617188c-4.273438 0-7.738281 3.464843-7.738281 7.738281v12.597656c0 4.269531 3.464843 7.734375 7.738281 7.734375zm0 0" fill="#6299c9"/><g fill="#91d1e0"><path d="m280.691406 162.617188h-26.230468c-4.273438 0-7.734376 3.464843-7.734376 7.738281v12.597656c0 4.269531 3.460938 7.734375 7.734376 7.734375h26.230468c4.269532 0 7.734375-3.460938 7.734375-7.734375v-12.597656c0-4.273438-3.460937-7.738281-7.734375-7.738281zm0 0"/><path d="m362.527344 162.617188h-26.226563c-4.273437 0-7.738281 3.464843-7.738281 7.738281v12.597656c0 4.269531 3.464844 7.734375 7.738281 7.734375h26.226563c4.273437 0 7.738281-3.460938 7.738281-7.734375v-12.597656c0-4.273438-3.464844-7.738281-7.738281-7.738281zm0 0"/><path d="m62.980469 269.699219h-9.253907c-4.140624 0-7.5-3.355469-7.5-7.5s3.359376-7.5 7.5-7.5h9.253907c4.144531 0 7.5 3.355469 7.5 7.5 0 4.140625-3.355469 7.5-7.5 7.5zm0 0"/><path d="m103.898438 269.699219h-9.253907c-4.140625 0-7.5-3.355469-7.5-7.5s3.359375-7.5 7.5-7.5h9.253907c4.144531 0 7.5 3.355469 7.5 7.5 0 4.140625-3.355469 7.5-7.5 7.5zm0 0"/><path d="m144.820312 269.699219h-9.253906c-4.144531 0-7.5-3.355469-7.5-7.5s3.355469-7.5 7.5-7.5h9.253906c4.140626 0 7.5 3.355469 7.5 7.5 0 4.140625-3.359374 7.5-7.5 7.5zm0 0"/><path d="m185.738281 269.699219h-9.253906c-4.144531 0-7.5-3.355469-7.5-7.5s3.355469-7.5 7.5-7.5h9.253906c4.140625 0 7.5 3.355469 7.5 7.5 0 4.140625-3.359375 7.5-7.5 7.5zm0 0"/><path d="m226.65625 269.699219h-9.253906c-4.140625 0-7.5-3.355469-7.5-7.5s3.359375-7.5 7.5-7.5h9.253906c4.144531 0 7.5 3.355469 7.5 7.5 0 4.140625-3.355469 7.5-7.5 7.5zm0 0"/><path d="m267.574219 269.699219h-9.25c-4.144531 0-7.5-3.355469-7.5-7.5s3.355469-7.5 7.5-7.5h9.25c4.144531 0 7.503906 3.355469 7.503906 7.5 0 4.140625-3.359375 7.5-7.503906 7.5zm0 0"/><path d="m308.496094 269.699219h-9.253906c-4.144532 0-7.5-3.355469-7.5-7.5s3.355468-7.5 7.5-7.5h9.253906c4.140625 0 7.5 3.355469 7.5 7.5 0 4.140625-3.359375 7.5-7.5 7.5zm0 0"/><path d="m349.414062 269.699219h-9.253906c-4.140625 0-7.5-3.355469-7.5-7.5s3.359375-7.5 7.5-7.5h9.253906c4.144532 0 7.5 3.355469 7.5 7.5 0 4.140625-3.355468 7.5-7.5 7.5zm0 0"/><path d="m342.742188 340.21875c-35.789063 0-213.703126 0-319.023438 0l1.410156 7.832031c4.355469 24.199219 25.414063 41.804688 50 41.804688h325.539063c22.824219 0 43.570312-13.234375 53.191406-33.929688l23.5-50.554687c-78.847656 4.023437-74.683594 34.847656-134.617187 34.847656zm0 0"/></g><path d="m223.636719 340.21875c-65.320313 0-143.15625 0-199.917969 0l1.410156 7.832031c4.355469 24.199219 25.414063 41.804688 50 41.804688h193.484375c-19.957031-14.355469-34.53125-31.492188-44.976562-49.636719zm0 0" fill="#6299c9"/><path d="m415.847656 301.34375c-4.140625 0-7.5-3.355469-7.5-7.5v-53.179688c0-4.140624 3.359375-7.5 7.5-7.5 4.144532 0 7.5 3.359376 7.5 7.5v53.179688c0 4.144531-3.355468 7.5-7.5 7.5zm0 0" fill="#fde77c"/><path d="m415.847656 301.34375c-12.992187 0-25.109375-6.992188-31.621094-18.25-2.074218-3.582031-.851562-8.171875 2.734376-10.246094 3.585937-2.074218 8.175781-.847656 10.25 2.734375 3.839843 6.636719 10.980468 10.761719 18.636718 10.761719s14.800782-4.125 18.640625-10.761719c2.074219-3.585937 6.667969-4.808593 10.25-2.734375 3.582031 2.078125 4.808594 6.664063 2.734375 10.25-6.515625 11.253906-18.632812 18.246094-31.625 18.246094zm0 0" fill="#fde77c"/><path d="m429.820312 262.019531h-27.945312c-4.140625 0-7.5-3.359375-7.5-7.5 0-4.144531 3.359375-7.5 7.5-7.5h27.945312c4.144532 0 7.5 3.355469 7.5 7.5 0 4.140625-3.355468 7.5-7.5 7.5zm0 0" fill="#fde77c"/><path d="m313.566406 118.175781c8.59375 0 15.582032-6.992187 15.582032-15.582031v-13.160156c0-8.59375-6.988282-15.582032-15.582032-15.582032h-27.402344c-8.589843 0-15.578124 6.988282-15.578124 15.582032v13.160156c0 8.589844 6.988281 15.582031 15.578124 15.582031zm-27.980468-15.582031v-13.160156c0-.320313.257812-.582032.578124-.582032h27.402344c.320313 0 .582032.261719.582032.582032v13.160156c0 .320312-.261719.578125-.582032.578125h-27.402344c-.320312 0-.578124-.257813-.578124-.578125zm-170.769532 16.5h26.230469c8.398437 0 15.234375-6.832031 15.234375-15.234375v-12.597656c0-8.402344-6.835938-15.234375-15.234375-15.234375h-26.230469c-8.402344 0-15.234375 6.832031-15.234375 15.234375v12.597656c0 8.402344 6.832031 15.234375 15.234375 15.234375zm-.234375-27.832031c0-.128907.105469-.234375.234375-.234375h26.230469c.128906 0 .234375.105468.234375.234375v12.597656c0 .128906-.105469.234375-.234375.234375h-26.230469c-.128906 0-.234375-.105469-.234375-.234375zm247.945313 63.859375h-26.230469c-8.398437 0-15.234375 6.832031-15.234375 15.234375v12.597656c0 8.398437 6.835938 15.234375 15.234375 15.234375h26.230469c8.402344 0 15.238281-6.835938 15.238281-15.234375v-12.597656c0-8.402344-6.835937-15.234375-15.238281-15.234375zm.238281 27.832031c0 .128906-.109375.234375-.238281.234375h-26.226563c-.132812 0-.234375-.105469-.234375-.234375v-12.597656c0-.128907.101563-.234375.234375-.234375h26.226563c.132812 0 .238281.105468.238281.234375zm-139.882813-63.859375c8.402344 0 15.238282-6.832031 15.238282-15.234375v-12.597656c0-8.402344-6.835938-15.234375-15.238282-15.234375h-26.226562c-8.402344 0-15.238281 6.832031-15.238281 15.234375v12.597656c0 8.402344 6.835937 15.234375 15.238281 15.234375zm-26.464843-15.234375v-12.597656c0-.128907.105469-.234375.238281-.234375h26.226562c.132813 0 .238282.105468.238282.234375v12.597656c0 .128906-.105469.234375-.238282.234375h-26.226562c-.132812 0-.238281-.105469-.238281-.234375zm-79.402344 51.261719h-26.230469c-8.398437 0-15.234375 6.832031-15.234375 15.234375v12.597656c0 8.398437 6.835938 15.234375 15.234375 15.234375h26.230469c8.398437 0 15.234375-6.835938 15.234375-15.234375v-12.597656c0-8.402344-6.835938-15.234375-15.234375-15.234375zm.234375 27.832031c0 .128906-.105469.234375-.234375.234375h-26.230469c-.128906 0-.234375-.105469-.234375-.234375v-12.597656c0-.128907.105469-.234375.234375-.234375h26.230469c.128906 0 .234375.105468.234375.234375zm390.085938 43.253906c-5.46875-8.570312-14.800782-13.6875-24.964844-13.6875h-42.832032l-17.570312-54.589843c-6.1875-19.222657-23.914062-32.140626-44.109375-32.140626h-3.191406l-12.777344-39.707031c-6.417969-19.941406-24.808594-33.34375-45.761719-33.34375h-15.585937v-11.308593c8.460937-.199219 15.285156-7.132813 15.285156-15.640626v-2.832031c0-12.65625-10.296875-22.957031-22.957031-22.957031h-47.203125c-12.660157 0-22.957031 10.300781-22.957031 22.957031v2.832031c0 8.507813 6.828124 15.441407 15.289062 15.640626v11.308593h-118.507812c-4.140626 0-7.5 3.355469-7.5 7.5s3.359374 7.5 7.5 7.5h196.636718c14.414063 0 27.066406 9.21875 31.484375 22.941407l11.296875 35.109374h-272.765625v-42.929687c0-4.355469 1.882813-8.507813 5.167969-11.382813 3.117188-2.730468 3.429688-7.46875.699219-10.582031-2.726563-3.117187-7.464844-3.429687-10.582031-.699219-6.535157 5.722657-10.285157 13.984376-10.285157 22.664063v42.929687h-1.074219c-16.171874 0-29.332031 13.160157-29.332031 29.332032v57.398437h-5.601562c-10.433594 0-20.257813 4.589844-26.953125 12.597657-6.691406 8.003906-9.472656 18.484374-7.625 28.753906l17.1875 95.507812c5.003906 27.800782 29.136718 47.976563 57.382812 47.976563h311.09375c4.144532 0 7.5-3.355469 7.5-7.5 0-4.140625-3.355468-7.5-7.5-7.5h-311.09375c-20.640625 0-38.3125-14.507813-42.414062-34.636719h310.03125c30.496094 0 45.582031-7.621094 61.558594-15.691406 14.800781-7.476563 30.0625-15.175782 60.867187-18.230469l-18.113281 38.96875c-5.65625 12.171875-15.6875 21.5-28.242188 26.265625-3.871094 1.472656-5.816406 5.800781-4.347656 9.675781 1.46875 3.871094 5.800781 5.820313 9.671875 4.347657 16.234375-6.160157 29.203125-18.226563 36.523437-33.96875l23.449219-50.453126c.011719-.023437.023438-.046874.035157-.070312l25.074218-53.949219c4.285156-9.21875 3.578125-19.839843-1.886718-28.40625zm-221.792969-173.46875h-32.542969v-11.289062h32.542969zm-47.167969-26.289062c-.367188 0-.664062-.296875-.664062-.660157v-2.832031c0-4.386719 3.570312-7.957031 7.957031-7.957031h47.207031c4.386719 0 7.953125 3.570312 7.953125 7.957031v2.832031c0 .363282-.296875.660157-.660156.660157zm-182.636719 128.675781c0-7.90625 6.429688-14.335938 14.332031-14.335938h299.105469c.007813 0 .015625.003907.027344.003907.007813 0 .015625-.003907.023437-.003907h8.632813c13.660156 0 25.648437 8.734376 29.832031 21.738282l16.089844 49.992187h-368.042969zm439.882813 93.164062-23.175782 49.863282c-39.53125 2.621094-58.292968 12.089844-74.910156 20.484375-14.953125 7.558593-27.867187 14.082031-54.792968 14.082031h-312.75l-14.667969-81.503906c-1.058594-5.882813.53125-11.890625 4.367187-16.476563 3.835938-4.589843 9.464844-7.21875 15.445313-7.21875h398.910156.023437.027344 48.273438c5.089844 0 9.578125 2.460938 12.316406 6.75 2.738281 4.292969 3.078125 9.402344.933594 14.019531zm-214.929688-93.167968h-26.230468c-8.398438 0-15.234376 6.832031-15.234376 15.234375v12.597656c0 8.398437 6.835938 15.234375 15.234376 15.234375h26.230468c8.398438 0 15.234375-6.835938 15.234375-15.234375v-12.597656c0-8.402344-6.835937-15.234375-15.234375-15.234375zm.234375 27.832031c0 .128906-.105469.234375-.234375.234375h-26.230468c-.128907 0-.234376-.105469-.234376-.234375v-12.597656c0-.128907.105469-.234375.234376-.234375h26.230468c.128906 0 .234375.105468.234375.234375zm-82.074219-27.832031h-26.230468c-8.398438 0-15.234375 6.832031-15.234375 15.234375v12.597656c0 8.398437 6.835937 15.234375 15.234375 15.234375h26.230468c8.402344 0 15.238282-6.835938 15.238282-15.234375v-12.597656c0-8.402344-6.835938-15.234375-15.238282-15.234375zm.238282 27.832031c0 .128906-.105469.234375-.234375.234375h-26.230469c-.132812 0-.238281-.105469-.238281-.234375v-12.597656c0-.128907.105469-.234375.238281-.234375h26.230469c.128906 0 .234375.105468.234375.234375zm0 0"/></svg>