<?xml version="1.0" encoding="iso-8859-1"?>
<!-- Generator: Adobe Illustrator 19.0.0, SVG Export Plug-In . SVG Version: 6.00 Build 0)  -->
<svg version="1.1" id="Capa_1" xmlns="http://www.w3.org/2000/svg" xmlns:xlink="http://www.w3.org/1999/xlink" x="0px" y="0px"
	 viewBox="0 0 512 512" style="enable-background:new 0 0 512 512;" xml:space="preserve">
<g>
	<path style="fill:#4398D1;" d="M290.176,162.133c9.429,0,17.067-7.637,17.067-17.067c0-9.429-7.637-17.067-17.067-17.067h-42.667
		v34.133H290.176z"/>
	<path style="fill:#4398D1;" d="M290.176,384c9.429,0,17.067-7.637,17.067-17.067s-7.637-17.067-17.067-17.067h-42.667V384H290.176z
		"/>
	<path style="fill:#4398D1;" d="M247.509,85.333c9.429,0,17.067-7.637,17.067-17.067S256.939,51.2,247.509,51.2h-51.2v34.133
		H247.509z"/>
	<path style="fill:#4398D1;" d="M247.509,460.8c9.429,0,17.067-7.637,17.067-17.067c0-9.429-7.637-17.067-17.067-17.067h-51.2V460.8
		H247.509z"/>
</g>
<g>
	<path style="fill:#3E8CC7;" d="M281.643,145.067h-34.133v17.067h42.667c9.429,0.068,17.118-7.518,17.186-16.947
		c0.043-6.187-3.268-11.913-8.653-14.967C297.591,138.769,290.261,145.143,281.643,145.067z"/>
	<path style="fill:#3E8CC7;" d="M298.709,352.085c-1.118,8.55-8.439,14.925-17.067,14.848h-34.133V384h42.667
		c9.429,0.068,17.118-7.518,17.186-16.947C307.405,360.866,304.094,355.14,298.709,352.085z"/>
	<path style="fill:#3E8CC7;" d="M238.976,68.267h-42.667v17.067h51.2c9.429,0.068,17.118-7.518,17.186-16.947
		c0.043-6.187-3.268-11.913-8.653-14.967C254.925,61.969,247.595,68.343,238.976,68.267z"/>
	<path style="fill:#3E8CC7;" d="M256.043,428.885c-1.118,8.55-8.439,14.925-17.067,14.848h-42.667V460.8h51.2
		c9.429,0.068,17.118-7.518,17.186-16.947C264.738,437.666,261.427,431.94,256.043,428.885z"/>
</g>
<path style="fill:#CFCFCF;" d="M480.725,298.667H119.509l-110.933-51.2v-34.133h415.317c7.381,0,14.575,2.398,20.48,6.827
	l50.005,37.547c5.743,4.284,9.122,11.017,9.131,18.176l0,0c0.051,12.535-10.078,22.733-22.613,22.784
	C480.836,298.667,480.785,298.667,480.725,298.667z"/>
<polygon style="fill:#DE4C3C;" points="42.709,128 8.576,128 8.576,213.333 76.843,213.333 "/>
<g>
	<rect x="392.619" y="238.933" style="fill:#126099;" width="17.067" height="17.067"/>
	<rect x="358.485" y="238.933" style="fill:#126099;" width="17.067" height="17.067"/>
	<rect x="324.352" y="238.933" style="fill:#126099;" width="17.067" height="17.067"/>
	<rect x="290.219" y="238.933" style="fill:#126099;" width="17.067" height="17.067"/>
	<rect x="256" y="238.933" style="fill:#126099;" width="17.067" height="17.067"/>
	<rect x="221.867" y="238.933" style="fill:#126099;" width="17.067" height="17.067"/>
	<rect x="187.733" y="238.933" style="fill:#126099;" width="17.067" height="17.067"/>
	<rect x="153.6" y="238.933" style="fill:#126099;" width="17.067" height="17.067"/>
</g>
<g>
	<polygon style="fill:#CFCFCF;" points="179.243,8.533 110.976,8.533 213.376,213.333 315.776,213.333 	"/>
	<polygon style="fill:#CFCFCF;" points="179.243,503.467 110.976,503.467 213.376,298.667 315.776,298.667 	"/>
</g>
<polygon style="fill:#126099;" points="426.709,256 492.16,256 469.376,238.933 426.709,238.933 "/>
<polygon style="fill:#CF4737;" points="8.576,212.907 8.576,213.333 76.843,213.333 63.701,180.395 "/>
<polygon style="fill:#C4C4C4;" points="200.576,187.733 213.376,213.333 315.776,213.333 298.709,187.733 "/>
<path d="M499.499,250.88l-50.005-37.547c-7.381-5.538-16.367-8.533-25.6-8.533H320.384l-23.467-35.157
	c13.577-3.951,21.376-18.159,17.425-31.735c-3.14-10.778-12.937-18.261-24.166-18.441h-26.709l-17.067-25.6h1.109
	c14.14,0,25.6-11.46,25.6-25.6s-11.46-25.6-25.6-25.6h-34.133v1.707L186.325,3.84c-1.57-2.381-4.224-3.823-7.083-3.84h-68.267
	c-4.71,0.017-8.525,3.849-8.508,8.559c0,1.323,0.316,2.628,0.913,3.814L199.552,204.8H82.645l-32-79.957
	c-1.297-3.251-4.437-5.376-7.936-5.376H8.576c-4.71,0-8.533,3.823-8.533,8.533v119.467c-0.009,3.337,1.929,6.366,4.949,7.765
	l110.933,51.2c1.126,0.512,2.347,0.777,3.584,0.768h80.043l-96.171,192.427c-2.125,4.207-0.427,9.344,3.78,11.46
	c1.186,0.597,2.492,0.913,3.814,0.913h68.267c2.859-0.017,5.513-1.459,7.083-3.84l27.051-40.533v1.707h34.133
	c14.14,0,25.6-11.46,25.6-25.6c0-14.14-11.46-25.6-25.6-25.6H246.4l17.067-25.6h26.709c14.14-0.23,25.412-11.878,25.182-26.01
	c-0.179-11.23-7.663-21.026-18.441-24.166l23.467-35.157h160.341c17.297-0.051,31.283-14.106,31.232-31.403
	C511.932,266.001,507.324,256.777,499.499,250.88z M290.176,136.533c4.71,0,8.533,3.823,8.533,8.533s-3.823,8.533-8.533,8.533
	h-3.925l-11.435-17.067H290.176z M247.509,59.733c4.71,0,8.533,3.823,8.533,8.533s-3.823,8.533-8.533,8.533h-12.459l-11.435-17.067
	H247.509z M124.8,17.067h49.835L299.819,204.8h-81.152L124.8,17.067z M36.907,136.533L64.213,204.8H17.109v-68.267H36.907z
	 M247.509,435.2c4.71,0,8.533,3.823,8.533,8.533c0,4.71-3.823,8.533-8.533,8.533h-23.893l11.435-17.067H247.509z M290.176,358.4
	c4.71,0,8.533,3.823,8.533,8.533s-3.823,8.533-8.533,8.533h-15.36l11.435-17.067H290.176z M174.635,494.933H124.8L218.667,307.2
	h81.152L174.635,494.933z M480.725,290.133H121.387L17.109,242.005v-20.139h406.784c5.538,0,10.931,1.801,15.36,5.12l15.872,11.947
	h-28.416V256h51.2l11.349,8.533c6.272,4.762,7.492,13.696,2.731,19.968C489.31,288.026,485.154,290.108,480.725,290.133z"/>
<rect x="392.619" y="238.933" width="17.067" height="17.067"/>
<rect x="358.485" y="238.933" width="17.067" height="17.067"/>
<rect x="324.352" y="238.933" width="17.067" height="17.067"/>
<rect x="290.219" y="238.933" width="17.067" height="17.067"/>
<rect x="256" y="238.933" width="17.067" height="17.067"/>
<rect x="221.867" y="238.933" width="17.067" height="17.067"/>
<rect x="187.733" y="238.933" width="17.067" height="17.067"/>
<rect x="153.6" y="238.933" width="17.067" height="17.067"/>
<g>
</g>
<g>
</g>
<g>
</g>
<g>
</g>
<g>
</g>
<g>
</g>
<g>
</g>
<g>
</g>
<g>
</g>
<g>
</g>
<g>
</g>
<g>
</g>
<g>
</g>
<g>
</g>
<g>
</g>
</svg>
